#N canvas 831 168 408 434 10;
#X obj 74 17 receive fromGUI;
#X obj 109 308 send toNetwork;
#X obj 73 49 list trim;
#X obj 74 144 unpack 0 0 0;
#X obj 108 239 route 1;
#X msg 108 265 list /note \$1;
#X obj 108 177 swap;
#X obj 108 207 pack 0 0;
#X obj 209 205 delay 5000;
#X msg 262 282 list /generate 1;
#X obj 173 148 list;
#X obj 346 253 send toSystem;
#X msg 346 220 list /setPage \$1;
#X msg 347 185 0;
#X obj 74 75 route /Grid /max_duration /goBack;
#X obj 73 107 t l b;
#X msg 189 231 list /max_duration \$1;
#X obj 233 142 4900;
#X obj 235 173 100;
#X connect 0 0 2 0;
#X connect 2 0 14 0;
#X connect 3 1 6 0;
#X connect 3 2 6 1;
#X connect 4 0 5 0;
#X connect 5 0 1 0;
#X connect 6 0 7 0;
#X connect 6 1 7 1;
#X connect 7 0 4 0;
#X connect 8 0 9 0;
#X connect 9 0 1 0;
#X connect 10 0 1 0;
#X connect 12 0 11 0;
#X connect 13 0 12 0;
#X connect 14 0 15 0;
#X connect 14 1 16 0;
#X connect 14 1 17 0;
#X connect 14 2 13 0;
#X connect 14 3 10 0;
#X connect 15 0 3 0;
#X connect 15 1 8 0;
#X connect 16 0 1 0;
#X connect 17 0 18 0;
#X connect 18 0 8 1;
